HIERARCHY
ROOT Hips
{
	OFFSET 0.00000 0.00000 0.00000
	CHANNELS 6 Xposition Yposition Zposition Zrotation Yrotation Xrotation 
	JOINT LHipJoint
	{
		OFFSET 0 0 0
		CHANNELS 3 Zrotation Yrotation Xrotation
		JOINT LeftHip
		{
			OFFSET 1.53139 -1.83434 0.76626
			CHANNELS 3 Zrotation Yrotation Xrotation
			JOINT LeftKnee
			{
				OFFSET 2.56112 -7.03663 0.00000
				CHANNELS 3 Zrotation Yrotation Xrotation
				JOINT LeftAnkle
				{
					OFFSET 2.59983 -7.14299 0.00000
					CHANNELS 3 Zrotation Yrotation Xrotation
					JOINT LeftToe
					{
						OFFSET 0.13742 -0.37757 2.00054
						CHANNELS 3 Zrotation Yrotation Xrotation
						End Site
						{
							OFFSET 0.00000 -0.00000 1.02897
						}
					}
				}
			}
		}
	}
	JOINT RHipJoint
	{
		OFFSET 0 0 0
		CHANNELS 3 Zrotation Yrotation Xrotation
		JOINT RightHip
		{
			OFFSET -1.40122 -1.83435 0.76627
			CHANNELS 3 Zrotation Yrotation Xrotation
			JOINT RightKnee
			{
				OFFSET -2.54052 -6.98003 0.00000
				CHANNELS 3 Zrotation Yrotation Xrotation
				JOINT RightAnkle
				{
					OFFSET -2.63179 -7.23079 0.00000
					CHANNELS 3 Zrotation Yrotation Xrotation
					JOINT RightToe
					{
						OFFSET -0.24131 -0.66299 2.03908
						CHANNELS 3 Zrotation Yrotation Xrotation
						End Site
						{
							OFFSET -0.00000 -0.00000 1.07391
						}
					}
				}
			}
		}
	}
	JOINT lowerback
	{
		OFFSET 0 0 0
		CHANNELS 3 Zrotation Yrotation Xrotation
		JOINT Chest
		{
			OFFSET 0.01174 2.10302 -0.29778
			CHANNELS 3 Zrotation Yrotation Xrotation
			JOINT Chest2
			{
				OFFSET 0.00772 2.13227 -0.01247
				CHANNELS 3 Zrotation Yrotation Xrotation
				JOINT lowerneck
				{
					OFFSET 0 0 0
					CHANNELS 3 Zrotation Yrotation Xrotation
					JOINT Neck
					{
						OFFSET -0.09219 1.60848 0.31481
						CHANNELS 3 Zrotation Yrotation Xrotation
						JOINT Head
						{
							OFFSET 0.13974 1.65456 -0.31134
							CHANNELS 3 Zrotation Yrotation Xrotation
							End Site
							{
								OFFSET 0.04742 1.69515 -0.14578
							}
						}
					}
				}
				JOINT LeftCollar
				{
					OFFSET 0 0 0
					CHANNELS 3 Zrotation Yrotation Xrotation
					JOINT LeftShoulder
					{
						OFFSET 3.24909 1.02882 -0.23993
CHANNELS 3 Zrotation Xrotation Yrotation
						JOINT LeftElbow
						{
OFFSET 0 -5.329550 -0.000000
CHANNELS 3 Zrotation Xrotation Yrotation
							JOINT LeftWrist
							{
OFFSET 0 -3.692320 -0.000000
CHANNELS 3 Zrotation Xrotation Yrotation
								JOINT lhand
								{
									OFFSET 0 0 0
CHANNELS 3 Zrotation Xrotation Yrotation
									JOINT LFingers
									{
OFFSET 0 -0.536600 -0.000000
CHANNELS 3 Zrotation Xrotation Yrotation
										End Site
										{
OFFSET 0 -0.432620 -0.000000
										}
									}
								}
								JOINT LThumb
								{
OFFSET 0 0.000000 0.000000
CHANNELS 3 Zrotation Xrotation Yrotation
									End Site
									{
OFFSET 0 -0.439220 0.439220
									}
								}
							}
						}
					}
				}
				JOINT RightCollar
				{
					OFFSET 0 0 0
					CHANNELS 3 Zrotation Yrotation Xrotation
					JOINT RightShoulder
					{
						OFFSET -3.21387 0.93002 -0.34594
CHANNELS 3 Zrotation Xrotation Yrotation
						JOINT RightElbow
						{
OFFSET 0 -5.234310 0.000000
CHANNELS 3 Zrotation Xrotation Yrotation
							JOINT RightWrist
							{
OFFSET 0 -3.553010 -0.000000
CHANNELS 3 Zrotation Xrotation Yrotation
								JOINT rhand
								{
									OFFSET 0 0 0
CHANNELS 3 Zrotation Xrotation Yrotation
									JOINT RFingers
									{
OFFSET 0 -0.772520 -0.000000
CHANNELS 3 Zrotation Xrotation Yrotation
										End Site
										{
OFFSET 0 -0.622830 -0.000000
										}
									}
								}
								JOINT RThumb
								{
OFFSET 0 0.000000 0.000000
CHANNELS 3 Zrotation Xrotation Yrotation
									End Site
									{
OFFSET 0 -0.632340 0.632340
									}
								}
							}
						}
					}
				}
			}
		}
	}
}
MOTION
Frames: 11
Frame Time: 0.008333333333333333
10.633850 17.925759 10.813670 2.205614 -10.143193 0.375157 0.000000 0.000000 0.000000 -17.601977 -12.634391 -7.856982 2.037966 8.944205 25.621387 -2.230500 -29.475585 -5.211494 0.064761 -1.137813 -3.133214 0.000000 0.000000 0.000000 23.125535 -1.256607 -7.077284 -2.405189 -9.663356 27.893330 -0.533529 14.912098 -15.645632 -0.798049 -5.701641 15.921214 0.056631 0.670686 12.383305 2.728524 1.078066 0.417610 2.657789 0.566665 -6.569164 -10.846956 -6.291005 -8.049026 8.794447 -11.033046 41.394187 4.110196 -5.219247 17.935474 0.000000 0.000000 0.000000 5.247362 6.104717 -61.361867 96.074048 -59.860138 65.257815 25.355912 -22.774217 -28.548386 0.000000 0.000000 0.000000 -7.125000 0.000000 0.000000 -6.286360 60.920684 2.445039 0.000000 0.000000 0.000000 -10.906462 7.004405 56.561247 -99.897485 -59.626595 -68.560746 -20.203498 -17.353290 -13.708938 0.000000 0.000000 0.000000 7.125000 0.000000 0.000000 4.926055 15.445916 3.449199
10.644372 17.921662 10.868324 2.206978 -11.392989 0.309539 0.000000 0.000000 0.000000 -17.812506 -12.565368 -7.793918 1.912854 8.682034 24.805804 -2.891185 -30.861157 -1.048333 0.009416 0.566245 1.556257 0.000000 0.000000 0.000000 23.068386 -0.663551 -6.548280 -2.381201 -9.618581 27.750118 -0.542226 15.178502 -15.837587 -0.714076 -5.397964 15.047795 -0.011184 0.668486 12.241971 2.831653 1.069610 0.414251 2.807693 0.565690 -6.496495 -10.982127 -6.152633 -8.001166 8.734842 -10.807896 41.497307 4.152038 -5.167945 17.951571 0.000000 0.000000 0.000000 5.205441 6.073044 -61.480967 96.013937 -59.862906 65.205810 25.403421 -22.754023 -27.968628 0.000000 0.000000 0.000000 -7.125000 0.000000 0.000000 -5.938499 60.331172 2.225097 0.000000 0.000000 0.000000 -10.963042 7.103419 56.753143 -100.256501 -59.598719 -68.870436 -20.663749 -17.695853 -13.734593 0.000000 0.000000 0.000000 7.125000 0.000000 0.000000 4.611677 15.372522 3.234611
10.658892 17.910714 10.923802 1.936075 -12.568426 0.320039 0.000000 0.000000 0.000000 -17.711807 -12.684340 -7.690374 1.813766 8.466801 24.141325 -3.247483 -31.464024 1.857931 0.126438 2.257816 6.219878 0.000000 0.000000 0.000000 23.254889 -0.245263 -6.076026 -2.356162 -9.571546 27.600145 -0.580822 15.480845 -16.293962 -0.596089 -4.942731 13.745180 0.303988 0.662288 12.107682 2.888807 1.106126 0.399173 2.683393 0.574302 -6.434094 -10.896992 -6.079546 -7.871638 8.581963 -10.697584 41.517872 4.085056 -5.141097 17.886648 0.000000 0.000000 0.000000 5.467024 6.025860 -61.834645 96.223910 -59.853102 65.387414 25.361532 -22.440266 -27.865729 0.000000 0.000000 0.000000 -7.125000 0.000000 0.000000 -5.936218 60.213988 2.207718 0.000000 0.000000 0.000000 -10.823855 7.330699 56.768236 -100.664165 -59.565885 -69.221987 -21.189460 -17.892133 -14.027236 0.000000 0.000000 0.000000 7.125000 0.000000 0.000000 4.264264 15.008584 3.022997
10.677081 17.898102 10.981250 1.830815 -13.724819 0.295510 0.000000 0.000000 0.000000 -17.792212 -12.620007 -7.617781 1.747149 8.318199 23.684823 -3.297303 -31.238077 3.435516 0.385171 3.969744 10.993532 0.000000 0.000000 0.000000 23.172477 -0.068556 -5.782140 -2.340901 -9.542640 27.508047 -0.509522 16.346328 -16.109039 -0.668635 -5.227258 14.558230 0.421014 0.606590 11.871528 2.925777 1.041421 0.503685 2.667333 0.537557 -6.186235 -10.858728 -6.048600 -8.122035 8.420082 -10.607766 41.582117 4.010301 -5.120246 17.957013 0.000000 0.000000 0.000000 5.649569 5.740848 -62.067446 96.239837 -59.852355 65.401198 25.417612 -22.095748 -27.793696 0.000000 0.000000 0.000000 -7.125000 0.000000 0.000000 -5.837279 60.152681 2.162457 0.000000 0.000000 0.000000 -10.784570 7.275883 56.878092 -100.680623 -59.564534 -69.236121 -21.227976 -17.991812 -14.367392 0.000000 0.000000 0.000000 7.125000 0.000000 0.000000 4.253612 14.644093 3.048527
10.696896 17.886781 11.038706 1.740440 -14.941404 0.245948 0.000000 0.000000 0.000000 -17.865236 -12.445686 -7.471423 1.722870 8.263242 23.516593 -2.989376 -29.792082 3.688932 0.642825 5.107756 14.220913 0.000000 0.000000 0.000000 23.035164 0.028403 -5.571619 -2.339040 -9.539178 27.496971 -0.366714 17.396338 -15.474930 -0.843727 -5.858771 16.375225 0.540743 0.573205 11.774007 2.919496 1.010282 0.490356 2.598339 0.518360 -6.142005 -10.901141 -5.987208 -8.083363 8.431044 -10.551954 41.617336 4.033011 -5.116074 17.962491 0.000000 0.000000 0.000000 5.729472 5.725295 -62.258727 96.322391 -59.848380 65.472595 25.759302 -21.421049 -27.633347 0.000000 0.000000 0.000000 -7.125000 0.000000 0.000000 -5.369308 60.069014 1.977545 0.000000 0.000000 0.000000 -10.804694 7.070441 57.133491 -100.564998 -59.573893 -69.136466 -21.365772 -18.192631 -14.322275 0.000000 0.000000 0.000000 7.125000 0.000000 0.000000 4.157626 14.677060 2.976544
10.715991 17.866509 11.107072 1.313342 -16.613069 0.272922 0.000000 0.000000 0.000000 -17.501786 -12.204041 -6.976359 1.729969 8.279499 23.566251 -2.551803 -27.916972 2.756991 0.754557 5.543602 15.466646 0.000000 0.000000 0.000000 23.249181 0.280909 -5.376122 -2.356166 -9.571493 27.599933 -0.233237 18.500496 -15.013810 -0.820062 -5.778249 16.142270 0.893470 0.660259 11.567756 2.981893 1.169236 0.517161 2.438223 0.586149 -5.998984 -10.902077 -5.915826 -7.947791 8.457848 -10.501631 41.591206 4.054162 -5.108848 17.903263 0.000000 0.000000 0.000000 5.776918 5.657351 -62.422170 96.154747 -59.856408 65.327610 25.778524 -20.801223 -27.773618 0.000000 0.000000 0.000000 -7.125000 0.000000 0.000000 -5.413516 60.220120 2.013415 0.000000 0.000000 0.000000 -10.733130 7.265909 57.326651 -100.447274 -59.583512 -69.034897 -21.692547 -18.416477 -14.419666 0.000000 0.000000 0.000000 7.125000 0.000000 0.000000 3.939914 14.537718 2.831652
10.730926 17.855882 11.173640 1.148277 -17.862148 0.188589 0.000000 0.000000 0.000000 -17.456140 -11.567654 -6.478208 1.728619 8.276393 23.556760 -2.397104 -27.613647 1.038246 0.591422 4.923188 13.689686 0.000000 0.000000 0.000000 23.173719 0.456333 -5.209574 -2.415112 -9.681861 27.952517 -0.137746 19.435986 -14.824958 -0.847303 -5.870770 16.410157 0.924405 0.572082 11.399827 3.017139 1.049534 0.602677 2.477820 0.525835 -5.810079 -10.762570 -5.890601 -8.165109 8.174375 -10.406126 41.663617 3.903971 -5.087856 17.948827 0.000000 0.000000 0.000000 5.751683 5.633517 -62.320880 96.181258 -59.855163 65.350522 25.978129 -20.100083 -27.558683 0.000000 0.000000 0.000000 -7.125000 0.000000 0.000000 -5.083894 60.044365 1.869326 0.000000 0.000000 0.000000 -10.883175 7.259564 57.569419 -100.921142 -59.544519 -69.443544 -21.493037 -18.729130 -14.457175 0.000000 0.000000 0.000000 7.125000 0.000000 0.000000 4.077476 14.520067 2.932646
10.747337 17.839740 11.237940 1.177055 -18.886864 0.095344 0.000000 0.000000 0.000000 -17.634394 -10.750492 -6.059065 1.692605 8.193956 23.304655 -2.373969 -27.810299 0.112418 0.571132 4.830530 13.427555 0.000000 0.000000 0.000000 22.832471 0.362465 -5.305281 -2.524680 -9.882408 28.597024 0.001820 20.654704 -14.531851 -0.980526 -6.300964 17.660869 0.863708 0.427180 11.351930 2.916983 0.841010 0.613739 2.440379 0.423398 -5.762786 -10.612365 -5.905382 -8.351826 8.027912 -10.438694 41.720512 3.793612 -5.103015 18.010549 0.000000 0.000000 0.000000 5.854260 5.655656 -62.236578 96.260576 -59.851373 65.419099 25.916527 -19.625412 -27.327797 0.000000 0.000000 0.000000 -7.125000 0.000000 0.000000 -5.048211 59.787867 1.825038 0.000000 0.000000 0.000000 -10.705864 7.236950 57.541789 -100.781833 -59.556145 -69.323434 -21.421073 -18.326480 -14.564044 0.000000 0.000000 0.000000 7.125000 0.000000 0.000000 4.131675 14.414688 2.981072
10.763854 17.823105 11.303498 1.244494 -19.723446 -0.072639 0.000000 0.000000 0.000000 -17.909553 -10.039465 -5.573946 1.645808 8.085542 22.974306 -2.089774 -27.069955 -2.008596 0.271705 3.321274 9.177318 0.000000 0.000000 0.000000 22.410440 -0.368294 -5.771769 -2.672036 -10.143800 29.443962 0.168005 21.968414 -14.185164 -1.015818 -6.410488 17.980798 0.864051 0.297759 11.322144 2.732908 0.653933 0.713994 2.275565 0.328188 -5.630663 -10.534080 -6.047178 -8.435272 8.170855 -10.757047 41.571080 3.775277 -5.211068 18.000967 0.000000 0.000000 0.000000 5.974828 5.638984 -62.298782 96.317640 -59.848584 65.468482 25.888415 -18.357085 -27.911128 0.000000 0.000000 0.000000 -7.125000 0.000000 0.000000 -5.352798 60.390517 2.012626 0.000000 0.000000 0.000000 -10.514088 7.043784 57.411184 -100.614225 -59.569919 -69.178891 -21.610162 -18.048836 -14.476599 0.000000 0.000000 0.000000 7.125000 0.000000 0.000000 3.998807 14.486444 2.878519
10.778026 17.805937 11.365815 1.465622 -20.765623 -0.134800 0.000000 0.000000 0.000000 -18.423459 -9.330132 -5.310404 1.608736 7.998435 22.709442 -1.724798 -25.844925 -4.051453 0.110704 2.143150 5.901610 0.000000 0.000000 0.000000 21.819252 -1.185821 -6.643379 -2.845096 -10.439927 30.413459 0.360811 23.404865 -13.834607 -0.892818 -6.021809 16.847795 0.522670 0.147115 11.309270 2.591827 0.404237 0.632590 2.360866 0.213071 -5.701803 -10.540806 -6.095819 -8.229338 8.194091 -10.874059 41.305363 3.754983 -5.275681 17.806598 0.000000 0.000000 0.000000 5.999103 5.720951 -61.982216 96.075333 -59.860096 65.258932 24.917405 -17.137123 -28.294583 0.000000 0.000000 0.000000 -7.125000 0.000000 0.000000 -6.660470 60.549307 2.532144 0.000000 0.000000 0.000000 -10.497934 6.945290 57.647039 -100.157862 -59.606501 -68.785368 -22.203649 -17.897603 -14.393225 0.000000 0.000000 0.000000 7.125000 0.000000 0.000000 3.590852 14.508660 2.581890
10.791216 17.805674 11.435002 1.640398 -21.939463 -0.278699 0.000000 0.000000 0.000000 -18.997673 -9.176723 -4.702199 1.586375 7.945510 22.548759 -1.485184 -24.379584 -4.304928 0.217155 2.992823 8.259194 0.000000 0.000000 0.000000 21.222337 -1.866644 -7.405307 -3.073517 -10.812466 31.650664 0.761955 24.807670 -11.939073 -1.172679 -6.869164 19.330029 0.327611 0.015688 11.266386 2.388635 0.190588 0.685583 2.290513 0.109823 -5.613256 -10.463008 -6.180703 -8.212456 8.209179 -11.051254 41.082559 3.701183 -5.347224 17.691718 0.000000 0.000000 0.000000 6.030029 5.810015 -61.581560 96.112193 -59.858326 65.290772 24.369632 -15.376529 -29.008329 0.000000 0.000000 0.000000 -7.125000 0.000000 0.000000 -7.671341 61.148115 3.027446 0.000000 0.000000 0.000000 -10.441719 6.834260 57.868018 -99.926526 -59.624391 -68.585729 -22.408430 -17.733648 -14.451252 0.000000 0.000000 0.000000 7.125000 0.000000 0.000000 3.454655 14.423541 2.489960
